<svg viewBox="0 0 338.9 100" xml:space="preserve" xmlns="http://www.w3.org/2000/svg">
  <g fill="#e6223c">
		<polygon points="0,78.3 0,2.2 16.7,2.2 16.7,61.6 56.7,61.6 56.7,78.3"></polygon>
    <rect x="80.3" y="2.2" width="16.7" height="76.1"></rect>
    <rect x="226.8" y="2.2" width="16.7" height="76.1"></rect>
    <path d="M270.6,78.3V2.2h30.3c11.2,0,20.8,3.8,27.8,11.1c6.6,6.9,10.3,16.4,10.3,26.8c0,21-17.1,38.2-38,38.2H270.6z
    M287.2,61.6h15.4c11-0.4,19.6-9.8,19.6-21.5c0-11.7-8.8-21.2-19.6-21.2h-15.4V61.6z"></path>
    <path d="M160.9,80.3c-22.1,0-40.2-18-40.2-40.2S138.8,0,160.9,0s40.2,18,40.2,40.2S183,80.3,160.9,80.3z M160.9,15.9
    c-13.4,0-24.3,10.9-24.3,24.3s10.9,24.3,24.3,24.3s24.3-10.9,24.3-24.3S174.3,15.9,160.9,15.9z"></path>
    <path d="M160.9,52.7c-6.9,0-12.5-5.6-12.5-12.5s5.6-12.5,12.5-12.5c6.9,0,12.5,5.6,12.5,12.5S167.8,52.7,160.9,52.7z"></path>
    <path d="M188,95.2c-4.2-5.4-3.3-13.3,2.2-17.6s13.3-3.3,17.6,2.2c4.2,5.4,3.3,13.3-2.2,17.6S192.2,100.6,188,95.2z"></path>
  </g>
</svg>